<?xml version="1.0" encoding="UTF-8"?><svg id="Ebene_1" xmlns="http://www.w3.org/2000/svg" viewBox="0 0 530 530"><defs><style>.cls-1{fill:#fff;}.cls-2{font-family:Neuton-Regular, Neuton;font-size:75px;letter-spacing:.08em;}.cls-3{font-family:OrtisanSignatureRegular, 'Ortisan Signature';font-size:50px;}</style></defs><g><path class="cls-1" d="M589.55,362.09c-250.35,0-500.7,0-751.05,0,0-144.86,0-289.72,0-434.59,250.35,0,500.7,0,751.04,0,0,144.86,0,289.72,0,434.59ZM28.97,320.48c-18.77-83.02,7.93-152.83,38.03-194.17C109.33,68.14,166.17,33.51,237.73,26.18c81.71-8.37,151.54,18.4,206.14,79.87,54.73,61.63,70.7,134.29,54.68,214.49,5.64,.81,5.67,.81,6.62-3.84,8.72-42.54,7.27-84.69-6.18-126.05-20.63-63.45-60.51-111.37-119.19-143.05-48.56-26.22-100.61-34.65-155.06-25.92-62,9.93-113.4,39.39-152.69,88.2C23.23,170.56,7.34,239.86,22.01,316.24c1.01,5.24,1.08,5.22,6.96,4.24Zm196.77-91.58c.49-1.78,1.3-3.43,1.33-5.08,.14-7.4,.17-14.8,.03-22.2-.21-11.33-5.07-16.55-16.35-18.56-11.3-2.01-22.15-5.46-31.96-11.6-8.99-5.63-15.74-13.07-17.15-24.02-.54-4.15-.08-8.44,.03-12.67,.17-6.59,4.2-10,10.59-8.26,8.71,2.36,17.13,1.13,24.79-2.59,9.65-4.69,18.61-10.78,27.97-16.09,4.18-2.37,8.41-4.97,12.95-6.31,9.03-2.67,18.31-1.56,27.41,.13,17.95,3.33,30.31,13.38,36.16,30.94,3.51,10.56,3.75,21.49,3.21,32.4-1.07,21.58,5.84,40.25,19.59,56.66,7.71,9.2,15.87,18.1,22.87,27.82,20.12,27.93,35.72,58.24,46.22,91.09,.37,1.15,.68,2.42,1.41,3.3,.59,.7,1.99,1.43,2.67,1.18,.92-.34,1.85-1.51,2.12-2.5,.26-.93-.2-2.14-.54-3.16-9.74-29.52-22.67-57.58-40.39-83.14-9.23-13.32-19.86-25.69-30.12-38.28-12.53-15.37-19.28-32.47-18.21-52.62,.45-8.41-.02-17.04-1.38-25.35-3.23-19.86-13.61-34.52-33.24-41.4-10.32-3.62-21.03-4.59-31.93-3.78-7.82,.58-14.76,3.23-21.27,7.65-7.5,5.1-15.17,10.03-23.14,14.34-8.37,4.53-17.3,6.55-27,3.9-7.36-2.01-14.72,2.92-15.92,10.56-.82,5.22-1.16,10.67-.65,15.92,1.26,12.95,8.97,21.94,19.47,28.77,10.76,6.99,22.84,10.5,35.31,12.9,8.21,1.57,10.91,4.89,10.91,13.19,0,7.04-.07,14.07,.05,21.11,.03,1.92,.67,3.83,1.06,5.87-.85,0-2.15,.08-3.44-.01-12.76-.96-22.65,6.24-24.99,18.67-.74,3.92-2.38,8.03-4.77,11.18-2.13,2.8-5.86,4.39-8.88,6.52-3.32,2.35-6.65,4.86-6.3,9.46,.42,5.5,2.17,10.62,5.38,15.21,1.36,1.94,2.65,3.98,3.57,6.15,1.76,4.15,4.61,6.07,9.15,6.38,5.43,.37,10.92,.7,16.23,1.78,7.92,1.6,16.23,9.18,16.99,18.56,.5,6.16-1.2,11.69-2.44,17.46-.3,1.39,.37,4,1.33,4.45,2.22,1.03,3.49-.91,4.01-2.93,1.01-3.87,2.31-7.73,2.72-11.67,1.18-11.42-2.15-21.02-12.26-27.53-7.7-4.96-16.41-5.55-25.16-5.68-2.92-.04-4.35-1.18-5.51-3.67-1.1-2.37-2.47-4.69-4.12-6.71-6.24-7.68-5.01-13.64,3.22-18.62,3.35-2.03,6.32-5.26,8.42-8.61,2.06-3.29,3.05-7.34,4.05-11.18,1.5-5.76,4.32-10.56,10.15-12.26,3.85-1.12,8.12-1.13,12.19-1.08,8.53,.09,14.85-3.04,18.91-10.84,2.75-5.28,6.19-10.19,9.77-16.01,1.96,2.73,3.75,4.7,4.94,6.98,3.86,7.39,4.77,15.41,4.44,23.6-.18,4.36,.75,8.24,4.08,11.2,16.69,14.87,26.9,33.86,33.93,54.6,4.06,11.98,6.71,24.44,9.92,36.7,.54,2.08,.9,4.48,3.64,3.97,2.66-.49,2.39-2.72,1.97-4.92-2.89-15.36-6.97-30.38-12.82-44.87-7.45-18.47-17.17-35.49-32.13-49.12-1.57-1.43-2.46-4.09-2.77-6.31-.57-4.06-.23-8.24-.7-12.31-.95-8.2-3.47-15.84-9.4-21.94-3.77-3.88-8.42-3.23-11.16,1.34-3.34,5.59-6.75,11.13-10.17,16.67-2.12,3.44-5.26,5.09-8.94,5.28Zm68.78-82.91c-.79,11.37-2.88,20.99-6.61,28.64-1.73,3.54-4.31,6.02-8.12,7.31-6.13,2.08-12.41,2.49-18.69,1.5-14.06-2.21-20.77-11.18-18.37-25.24,1.13-6.62,2.9-13.33,5.66-19.43,3.22-7.12,7.92-13.55,11.75-20.42,.63-1.13,.04-2.94,0-4.43-1.45,.4-3.32,.37-4.27,1.28-1.8,1.74-3.16,3.97-4.56,6.1-8.18,12.45-13.99,25.76-14.59,40.9-.48,11.97,5.27,20.92,16.53,25.08,7.07,2.61,14.45,2.7,21.9,1.73,10.08-1.32,16.48-6.78,19.77-16.34,3.23-9.39,5.11-18.97,4.73-28.89-.15-3.83-.99-7.67-1.84-11.43-.39-1.72-1.44-3.57-3.88-2.7-2.44,.87-1.7,2.74-1.36,4.56,.73,3.91,1.32,7.84,1.96,11.76Zm-67.51-16.62c3.72-2.13,7.12-3.83,10.16-6.01,.69-.49,.15-2.69,.18-4.1-1.29,.04-2.9-.41-3.81,.2-6.16,4.1-6.4,4.1-13.19-.04-.95-.58-2.55-.07-3.85-.07,.05,1.4-.46,3.58,.24,4.07,3.07,2.15,6.48,3.82,10.28,5.95Zm-15.75,135c3.14-1.66,6-2.85,8.43-4.62,.83-.61,.61-2.66,.87-4.05-1.48-.06-3.42-.76-4.35-.08-3.43,2.51-6.35,2.82-9.7-.16-.76-.68-2.72,0-4.13,.05,.2,1.4-.1,3.44,.71,4.07,2.37,1.84,5.19,3.11,8.17,4.79Z"/><path d="M28.97,320.48c-5.88,.98-5.95,.99-6.96-4.24-14.67-76.38,1.21-145.68,50.04-206.36C111.34,61.07,162.74,31.61,224.74,21.68c54.45-8.72,106.51-.29,155.06,25.92,58.68,31.68,98.56,79.6,119.19,143.05,13.45,41.36,14.89,83.51,6.18,126.05-.95,4.66-.98,4.65-6.62,3.84,16.02-80.19,.05-152.86-54.68-214.49-54.6-61.48-124.43-88.24-206.14-79.87-71.56,7.33-128.4,41.96-170.74,100.13-30.09,41.35-56.8,111.15-38.03,194.17Z"/><path d="M225.74,228.91c3.68-.2,6.82-1.84,8.94-5.28,3.41-5.54,6.83-11.08,10.17-16.67,2.74-4.58,7.39-5.23,11.16-1.34,5.92,6.1,8.45,13.73,9.4,21.94,.47,4.08,.13,8.26,.7,12.31,.31,2.22,1.2,4.88,2.77,6.31,14.96,13.63,24.68,30.65,32.13,49.12,5.85,14.49,9.93,29.52,12.82,44.87,.42,2.21,.69,4.44-1.97,4.92-2.74,.5-3.1-1.9-3.64-3.97-3.21-12.26-5.86-24.72-9.92-36.7-7.03-20.74-17.25-39.73-33.93-54.6-3.33-2.96-4.26-6.84-4.08-11.2,.33-8.19-.57-16.22-4.44-23.6-1.19-2.28-2.98-4.25-4.94-6.98-3.58,5.81-7.02,10.73-9.77,16.01-4.06,7.8-10.38,10.93-18.91,10.84-4.07-.04-8.34-.04-12.19,1.08-5.83,1.7-8.65,6.51-10.15,12.26-1,3.84-1.99,7.89-4.05,11.18-2.1,3.34-5.07,6.58-8.42,8.61-8.23,4.98-9.46,10.95-3.22,18.62,1.64,2.02,3.02,4.34,4.12,6.71,1.15,2.49,2.59,3.63,5.51,3.67,8.75,.12,17.46,.72,25.16,5.68,10.11,6.51,13.44,16.11,12.26,27.53-.41,3.94-1.71,7.8-2.72,11.67-.53,2.02-1.8,3.96-4.01,2.93-.97-.45-1.63-3.06-1.33-4.45,1.23-5.77,2.93-11.3,2.44-17.46-.75-9.38-9.07-16.96-16.99-18.56-5.32-1.07-10.8-1.41-16.23-1.78-4.54-.31-7.39-2.23-9.15-6.38-.92-2.17-2.22-4.21-3.57-6.15-3.21-4.59-4.96-9.72-5.38-15.21-.35-4.61,2.98-7.12,6.3-9.46,3.02-2.13,6.75-3.72,8.88-6.52,2.39-3.15,4.03-7.26,4.77-11.18,2.34-12.43,12.23-19.63,24.99-18.67,1.29,.1,2.6,.01,3.44,.01-.38-2.04-1.02-3.95-1.06-5.87-.12-7.03-.05-14.07-.05-21.11,0-8.29-2.7-11.61-10.91-13.19-12.47-2.39-24.55-5.91-35.31-12.9-10.5-6.82-18.21-15.81-19.47-28.77-.51-5.24-.17-10.69,.65-15.92,1.19-7.64,8.56-12.57,15.92-10.56,9.7,2.65,18.63,.63,27-3.9,7.97-4.31,15.64-9.24,23.14-14.34,6.51-4.42,13.45-7.07,21.27-7.65,10.9-.81,21.6,.16,31.93,3.78,19.63,6.88,30.01,21.54,33.24,41.4,1.35,8.32,1.82,16.94,1.38,25.35-1.07,20.15,5.69,37.25,18.21,52.62,10.26,12.59,20.89,24.95,30.12,38.28,17.71,25.57,30.65,53.62,40.39,83.14,.34,1.02,.8,2.23,.54,3.16-.28,.99-1.2,2.17-2.12,2.5-.68,.25-2.08-.48-2.67-1.18-.74-.88-1.05-2.16-1.41-3.3-10.5-32.85-26.1-63.17-46.22-91.09-7-9.72-15.16-18.62-22.87-27.82-13.75-16.41-20.66-35.08-19.59-56.66,.54-10.91,.3-21.84-3.21-32.4-5.84-17.56-18.2-27.61-36.16-30.94-9.09-1.69-18.37-2.79-27.41-.13-4.55,1.34-8.78,3.94-12.95,6.31-9.36,5.31-18.32,11.4-27.97,16.09-7.66,3.73-16.08,4.95-24.79,2.59-6.4-1.73-10.42,1.68-10.59,8.26-.11,4.22-.56,8.51-.03,12.67,1.41,10.95,8.16,18.39,17.15,24.02,9.8,6.14,20.66,9.6,31.96,11.6,11.29,2,16.14,7.23,16.35,18.56,.14,7.4,.11,14.8-.03,22.2-.03,1.66-.84,3.3-1.33,5.08Z"/><path d="M294.52,145.99c-.65-3.92-1.23-7.86-1.96-11.76-.34-1.82-1.08-3.69,1.36-4.56,2.45-.88,3.49,.97,3.88,2.7,.85,3.76,1.7,7.6,1.84,11.43,.38,9.91-1.5,19.5-4.73,28.89-3.29,9.56-9.69,15.02-19.77,16.34-7.45,.98-14.83,.89-21.9-1.73-11.25-4.16-17.01-13.11-16.53-25.08,.61-15.14,6.41-28.45,14.59-40.9,1.4-2.12,2.76-4.36,4.56-6.1,.95-.92,2.82-.89,4.27-1.28,.03,1.49,.62,3.3,0,4.43-3.82,6.86-8.53,13.3-11.75,20.42-2.76,6.09-4.53,12.81-5.66,19.43-2.4,14.06,4.31,23.03,18.37,25.24,6.29,.99,12.57,.58,18.69-1.5,3.81-1.3,6.39-3.77,8.12-7.31,3.73-7.65,5.81-17.27,6.61-28.64Z"/><path d="M227,129.37c-3.8-2.13-7.21-3.8-10.28-5.95-.69-.49-.19-2.67-.24-4.07,1.3,0,2.91-.51,3.85,.07,6.79,4.14,7.04,4.13,13.19,.04,.91-.61,2.52-.16,3.81-.2-.03,1.41,.51,3.61-.18,4.1-3.04,2.19-6.44,3.88-10.16,6.01Z"/><path d="M211.26,264.37c-2.99-1.69-5.8-2.96-8.17-4.79-.8-.62-.5-2.67-.71-4.07,1.41-.05,3.37-.72,4.13-.05,3.34,2.98,6.27,2.66,9.7,.16,.93-.68,2.87,.01,4.35,.08-.26,1.39-.04,3.45-.87,4.05-2.43,1.77-5.28,2.96-8.43,4.62Z"/></g><text class="cls-2" transform="translate(24.71 419.9)"><tspan x="0" y="0">LITTLE PAWS</tspan></text><text class="cls-3" transform="translate(135.48 483.66)"><tspan x="0" y="0">pet adoption</tspan></text></svg>